<svg xmlns="http://www.w3.org/2000/svg" viewBox="0 0 575.4 89.49"><defs><style>.cls-1{fill:#c6c6c6;}.cls-2{fill:#fff;}</style></defs><title>Woodram Group Logo 23 May</title><g id="Layer_2" data-name="Layer 2"><g id="Layer_1-2" data-name="Layer 1"><path class="cls-1" d="M10.19,28.81l10.28,22.4,11.08-26,11.16,26,10.16-22.4H63L42.47,71,31.55,45.73,20.51,71,0,28.81Z"/><path class="cls-1" d="M65.8,48.15a19.5,19.5,0,0,1,6.08-14.46,21.45,21.45,0,0,1,29.74,0,20,20,0,0,1,6,14.74,19.85,19.85,0,0,1-6.09,14.79,20.78,20.78,0,0,1-15,5.92,20,20,0,0,1-14.79-6A20.35,20.35,0,0,1,65.8,48.15Zm9.27.16q0,5.88,3.14,9.31a11.06,11.06,0,0,0,8.5,3.47,11.05,11.05,0,0,0,8.5-3.43q3.2-3.42,3.19-9.15a12.85,12.85,0,0,0-3.19-9.14,12,12,0,0,0-16.92,0A12.6,12.6,0,0,0,75.07,48.31Z"/><path class="cls-1" d="M115.4,48.15a19.47,19.47,0,0,1,6.09-14.46,21.44,21.44,0,0,1,29.73,0,20,20,0,0,1,6.05,14.74,19.85,19.85,0,0,1-6.09,14.79,20.78,20.78,0,0,1-15,5.92,19.92,19.92,0,0,1-14.78-6A20.32,20.32,0,0,1,115.4,48.15Zm9.27.16q0,5.88,3.14,9.31a12.21,12.21,0,0,0,17,0A12.9,12.9,0,0,0,148,48.51a12.89,12.89,0,0,0-3.18-9.14,12.06,12.06,0,0,0-16.93,0A12.6,12.6,0,0,0,124.67,48.31Z"/><path class="cls-1" d="M195.79,0h9.1V68.06h-9.1V64a16.92,16.92,0,0,1-12.13,5.23,17.29,17.29,0,0,1-13.38-5.88,21.87,21.87,0,0,1-5.28-15,21.13,21.13,0,0,1,5.28-14.66,16.85,16.85,0,0,1,13.18-5.93q6.89,0,12.33,5.64ZM174.27,48.31a13.7,13.7,0,0,0,3,9.19,9.92,9.92,0,0,0,7.82,3.59,10.41,10.41,0,0,0,8.14-3.47,13.42,13.42,0,0,0,3.1-9.11,13.39,13.39,0,0,0-3.1-9.1,10.26,10.26,0,0,0-8.06-3.51,10,10,0,0,0-7.82,3.55A13.1,13.1,0,0,0,174.27,48.31Z"/><path class="cls-1" d="M216.34,28.81h9.06v3.51a17.23,17.23,0,0,1,4.44-3.59,10.15,10.15,0,0,1,4.67-1A14.6,14.6,0,0,1,242,30.06l-4.15,8.3a8.58,8.58,0,0,0-5-1.85q-7.41,0-7.42,11.2V68.06h-9.06Z"/><path class="cls-1" d="M275.57,28.81h9.11V68.06h-9.11V64q-5.6,5.24-12.05,5.23a17.38,17.38,0,0,1-13.46-5.88q-5.28-6-5.27-15a21.18,21.18,0,0,1,5.27-14.7,17,17,0,0,1,13.22-5.89q6.86,0,12.29,5.64Zm-21.52,19.5a13.7,13.7,0,0,0,3,9.19,9.92,9.92,0,0,0,7.82,3.59A10.41,10.41,0,0,0,273,57.62a13.42,13.42,0,0,0,3.1-9.11,13.39,13.39,0,0,0-3.1-9.1A10.25,10.25,0,0,0,265,35.9a10,10,0,0,0-7.81,3.55A13.05,13.05,0,0,0,254.05,48.31Z"/><path class="cls-1" d="M296.12,28.81h9.07v3.63a18.57,18.57,0,0,1,4.47-3.71,10.85,10.85,0,0,1,4.95-1,12,12,0,0,1,10.52,5.8,13.63,13.63,0,0,1,11.57-5.8q13.24,0,13.25,16.08V68.06h-9.1V46.26q0-5.64-1.37-8a5,5,0,0,0-4.64-2.38,5.91,5.91,0,0,0-5.46,2.82q-1.71,2.82-1.71,9.07V68.06h-9.11V46.38q0-10.49-6-10.48a6.07,6.07,0,0,0-5.58,2.86q-1.76,2.87-1.75,9V68.06h-9.07Z"/><path class="cls-2" d="M399.35,67.13c0,1.85-.06,3.48-.18,4.9a34.8,34.8,0,0,1-.5,3.72,16.64,16.64,0,0,1-3.79,7.62q-5.33,6.12-14.63,6.12-7.86,0-12.93-4.23-5.24-4.35-6.05-12.05h9.11a10.41,10.41,0,0,0,1.73,4.48q2.82,3.66,8.22,3.66,10,0,10-12.21V63.66a16.93,16.93,0,0,1-12.45,5.52,16.71,16.71,0,0,1-13.14-5.8,21.49,21.49,0,0,1-5.16-14.71,22.61,22.61,0,0,1,4.8-14.58A16.66,16.66,0,0,1,378,27.72a15.83,15.83,0,0,1,12.33,5.52V28.81h9.06Zm-8.7-18.62q0-5.71-3.06-9.14a10.13,10.13,0,0,0-7.94-3.51,9.77,9.77,0,0,0-8.14,3.83,13.89,13.89,0,0,0-2.7,8.86,13.78,13.78,0,0,0,2.7,8.79,9.76,9.76,0,0,0,8.14,3.75,10,10,0,0,0,8.22-3.79A13.53,13.53,0,0,0,390.65,48.51Z"/><path class="cls-2" d="M410.8,28.81h9.06v3.51a17.22,17.22,0,0,1,4.43-3.59,10.22,10.22,0,0,1,4.68-1,14.6,14.6,0,0,1,7.49,2.34l-4.15,8.3a8.62,8.62,0,0,0-5-1.85q-7.42,0-7.42,11.2V68.06H410.8Z"/><path class="cls-2" d="M499.6,28.81V51.33q0,9.77,7.7,9.76t7.7-9.76V28.81h9.06V51.54a25.3,25.3,0,0,1-1.17,8.14A13.61,13.61,0,0,1,519,65.2a19.08,19.08,0,0,1-23.33,0,13.8,13.8,0,0,1-4-5.52,22.28,22.28,0,0,1-1.13-8.14V28.81Z"/><path class="cls-2" d="M544.57,89.41h-9.06V28.81h9.06v4.27a16.79,16.79,0,0,1,12.17-5.36,17,17,0,0,1,13.34,6q5.31,5.91,5.32,14.94a21.19,21.19,0,0,1-5.28,14.71,17,17,0,0,1-13.22,5.84q-6.89,0-12.33-5.52Zm21.56-40.74a13.54,13.54,0,0,0-3.06-9.18,9.92,9.92,0,0,0-7.82-3.59,10.37,10.37,0,0,0-8.1,3.47,13.11,13.11,0,0,0-3.1,9.1,13.42,13.42,0,0,0,3.1,9.11,10.18,10.18,0,0,0,8.06,3.51A9.86,9.86,0,0,0,563,57.54,12.9,12.9,0,0,0,566.13,48.67Z"/><path class="cls-2" d="M473.3,47.92v0h0v0Z"/><path class="cls-2" d="M472.43,43.31s0,.06.05.06-.05,0-.05-.06Z"/><path class="cls-2" d="M472.4,43.34l0,0h0Z"/><path class="cls-2" d="M461.57,27.71A20.74,20.74,0,1,0,482.3,48.44,20.73,20.73,0,0,0,461.57,27.71ZM474.79,46c.17,0,.22.08.3.15s-.18.17-.2.31l-.1,0c0-.07,0-.15.06-.2a.14.14,0,0,0,0-.09A.84.84,0,0,0,474.79,46Zm-5.51-8.34,0,0a0,0,0,0,0,0,0l0,0,0-.07Zm-.12,0,.06,0,0,0-.05,0Zm-3.61-2.22,0,0,0,0,0,0S465.54,35.41,465.55,35.41Zm-2.42-.09H463C463.05,35.24,463.06,35.24,463.13,35.32ZM451.9,39.45l.1.08-.11.07C451.83,39.53,451.83,39.53,451.9,39.45Zm-3.57,6.72a.93.93,0,0,0,0,.13s0,.07,0,.07a.26.26,0,0,1,.07.22l-.1,0c0-.14-.13-.21-.2-.32S448.17,46.14,448.33,46.17Zm-.49,2.25h0Zm16.73,9.26.1-.08s.1,0,.12.08A.17.17,0,0,1,464.57,57.68Zm10.85-8.82a.14.14,0,0,1-.13.11s-.06,0-.09,0-.06,0-.08,0l0,.1H475c-.1,0-.14,0-.12.11a.16.16,0,0,1,0,.15l0,0s0-.07-.07-.09-.07,0-.1-.06-.09,0-.14,0,0,.13.22.18l0,.06,0,0c.13,0,.19.13.25.21a.51.51,0,0,1,.06.25s0,0,0,.08l-.1.13-.09,0a.06.06,0,0,0-.05.09s0,.1,0,.14a.86.86,0,0,1-.13.14l-.1,0-.08-.07,0,0-.12-.09-.07.1s0,0,0,0a1,1,0,0,1,.07-.17l-.11.06a.36.36,0,0,0-.08.09l-.08-.09-.05.12c.07,0,.17,0,.19.12a.44.44,0,0,1,.3,0l-.11.07v.08h-.09l0,.06s.05,0,.07.07a.56.56,0,0,1,0,.12s0,.07,0,.1l-.11,0s0,0,0,.08,0,.05-.1.1V51l-.13.08.06.08c0,.07.05.08.12.05l.14-.08.06.07c.09-.11.16.06.27,0l0,.24s.05,0,.07,0a.11.11,0,0,1,.05.09.16.16,0,0,1-.05.18l-.09.06-.09.05.17.24a.73.73,0,0,1,.34.08s0,0,.06.08.13.14.12.24,0,.06,0,.1,0,.09,0,.13,0,0,0,.07a.14.14,0,0,1,0,.15c-.05.05-.08,0-.11,0s.08.18,0,.24c0,.06.09.13,0,.19s0,0,0,0,0,.08,0,.13l.07.05s0,0,0,0a.19.19,0,0,0-.07.16c0,.07-.06.05-.1.05s0,.12,0,.17,0,.05.05.07a.13.13,0,0,1-.17.18l-.08,0c-.07,0-.13-.08-.23,0a.3.3,0,0,0,.13.32.14.14,0,0,1,.06.07c.06.08.05.13-.08.19l.08,0c.05.06,0,.13,0,.14a.77.77,0,0,0-.25.1s-.08,0-.12,0a.13.13,0,0,0-.13.06c-.06.08-.09.08-.17.05a.93.93,0,0,1-.11.19.12.12,0,0,1-.09,0,.41.41,0,0,0-.35.3c-.07.17-.07.17-.24.12l-.39-.12c-.11,0-.21-.1-.32-.15a.4.4,0,0,0-.2.34c0,.27,0,.28-.32.35a.4.4,0,0,1-.19,0,.21.21,0,0,1-.13-.09.38.38,0,0,0-.33-.2H471a1,1,0,0,0-.34,0c-.05,0-.1,0-.16,0s-.06,0-.08,0a.21.21,0,0,0,0,.06l-.05,0h0c0,.09-.14.07-.21.11a.07.07,0,0,0,0,.06c0,.1-.07.12-.16.13l-.12.06a.26.26,0,0,1-.36,0,.12.12,0,0,0-.14,0v.17a.22.22,0,0,1-.22,0c0,.06,0,.1,0,.15a.06.06,0,0,1,0,.11l-.09,0a.25.25,0,0,0-.17.11.15.15,0,0,1-.17,0l-.32-.08a1.46,1.46,0,0,0-.29,0h0c-.13-.06-.25,0-.38,0s-.14,0-.16-.11l-.06-.06h-.06a.53.53,0,0,0-.41,0,2.11,2.11,0,0,1-.36,0h-.12l0,.09h-.11c-.09,0-.09,0-.14-.07s-.12-.19-.26-.17l-.07,0c-.12,0-.23,0-.35,0a.41.41,0,0,0-.18,0,.45.45,0,0,1-.18.08,1.2,1.2,0,0,1-.3.39l0,.06c0,.08-.06.16-.17.16s0,0-.07.05l-.06.07,0,.07-.08,0-.06.07-.07-.1v.09c-.07,0-.14,0-.17-.09s-.13-.08-.19-.12l-.06,0a.21.21,0,0,1-.2.06l-.12,0a.42.42,0,0,1-.34-.13l-.06,0-.07.16c0-.05,0-.11-.05-.12s-.08.08-.08.14-.09,0-.12,0l-.08-.05s-.07-.06-.13,0-.08,0-.1.07-.05,0-.08,0l-.23.06c0,.23,0,.45-.05.68s0,.45,0,.67a1.85,1.85,0,0,0,0,.23c0,.25,0,.5,0,.75s0,.3.06.45,0,.06,0,.07c.16.16.26.37.52.41a2.13,2.13,0,0,1,.33.11.33.33,0,0,1,.1.06v0l-.12,0-.65,0-.46,0h-1.29l-.64,0L460,61l.08-.07.16-.05a1.11,1.11,0,0,0,.5-.32.36.36,0,0,0,.11-.23,1.55,1.55,0,0,1,.05-.23,2.39,2.39,0,0,0,.08-.59c0-.41,0-.83,0-1.24a5.65,5.65,0,0,0,0-.59.2.2,0,0,0-.25-.17,2.29,2.29,0,0,1-.28.09l-.15,0a.17.17,0,0,0-.12,0,.11.11,0,0,1-.14,0c-.05,0-.1-.09-.18-.07h0s-.07-.09-.1-.09-.3-.08-.44,0a.24.24,0,0,1-.23,0l-.08-.06c.06,0,.09-.08,0-.14l-.12.06,0-.17-.07.12a.19.19,0,0,0-.22,0,.44.44,0,0,1-.3,0l-.14-.06.09-.1c-.06,0-.12-.07-.16,0l-.25,0c-.07,0-.12,0-.11-.13l-.09.06c-.11-.06,0-.16,0-.22a.31.31,0,0,0-.25.18h.1a.21.21,0,0,1-.18.14c-.08,0-.19.05-.24-.08s-.06,0-.08,0a.23.23,0,0,0-.06.12c0,.11-.07.13-.19.13s-.24,0-.32-.12,0,0,0,0-.11,0-.17,0-.14-.08-.18-.16a.07.07,0,0,0-.05,0v.08l0,0a.36.36,0,0,0-.39.17.22.22,0,0,1-.21.12.29.29,0,0,0-.25.08l-.08,0a1.7,1.7,0,0,0-.45.08c-.07,0-.14,0-.17,0s-.12-.08-.19-.11a.13.13,0,0,1-.08,0c-.05,0-.06,0,0-.1s0-.16,0-.24a0,0,0,0,0,0,0l-.15,0a.17.17,0,0,0-.16,0,.22.22,0,0,1-.28,0,.4.4,0,0,0-.23-.1.09.09,0,0,1-.1-.1c0-.08-.06-.1-.13-.11s-.12,0-.12-.11l-.07.05c0-.08-.09-.09-.18-.07a.37.37,0,0,1-.16,0,1.28,1.28,0,0,0-.7,0,.29.29,0,0,0-.16.13.25.25,0,0,1-.27.12l-.31-.08a.32.32,0,0,0-.25,0,.44.44,0,0,1-.4.07.76.76,0,0,0-.26,0l-.24,0a.15.15,0,0,0-.1,0,.42.42,0,0,1-.27,0c-.06,0-.11,0-.17,0s-.11,0-.13-.08,0-.11.07-.14l-.11,0c0-.06,0-.14.13-.18l0-.08h.13a.14.14,0,0,1,0-.15s0-.09,0-.13a.36.36,0,0,1,0-.14.31.31,0,0,0-.07-.27c-.07.06-.12,0-.15-.05s-.08-.08-.16-.06-.09,0-.13,0l-.18-.07s-.09,0-.11-.07,0-.08.07-.11v0s-.09-.08-.08-.1a.24.24,0,0,1,.09-.16.31.31,0,0,0,.13-.34c-.1-.08-.18,0-.26,0h0c-.08,0-.15,0-.18,0a.17.17,0,0,1,0-.21.41.41,0,0,0,.05-.09c0-.05,0-.09-.05-.09s-.08,0-.07-.1,0-.08-.06-.08v0l.06-.09c-.08,0,0-.13,0-.18s0-.13,0-.17c-.12-.07,0-.16-.05-.25H448l-.06-.05,0,0a2.44,2.44,0,0,1,0-.27.68.68,0,0,1,.13-.33.28.28,0,0,1,.17-.15l.29-.08a.27.27,0,0,1,.17-.2l-.15-.08a.2.2,0,0,1-.06-.32.16.16,0,0,0,0-.18v-.06l.34-.1.11.07c.08,0,.1,0,.14,0s0,0,.08-.06l-.14-.09,0,.13c-.1,0-.1,0-.07-.17h-.11a.17.17,0,0,1,0-.19s0-.1.11-.09l-.05-.13-.07,0a.3.3,0,0,0-.15-.17.35.35,0,0,1,.3,0,.18.18,0,0,1,.22-.12l-.07-.12-.07.08-.08-.08-.09-.06c0,.08.08.13,0,.21l-.06-.08c-.07,0-.09.11-.17,0l-.08.1a1.45,1.45,0,0,0-.22-.09,1.33,1.33,0,0,0-.21,0c-.15,0-.23-.12-.3-.23a.35.35,0,0,0-.05-.08.67.67,0,0,1-.06-.12,2.68,2.68,0,0,1-.07-.27l.11-.07,0-.08,0,0,.08.06s.05-.05.1-.06a1.61,1.61,0,0,0,.37-.07l.1-.07h0l.13-.1a.3.3,0,0,0,.05-.1c-.08,0-.15,0-.19,0s0,0,0,0-.06,0-.08.06-.05,0-.1.09a.83.83,0,0,1,0-.16c0-.13,0-.16-.14-.14h0l0-.09s-.07.12-.11,0h0c-.11,0-.14,0-.16-.13a1.42,1.42,0,0,1,0-.22c0-.06.06-.11.16-.12l0,.18h0l.06-.23h-.06a.37.37,0,0,1,0-.11c0-.06.11-.1.13-.16s.07-.08.13-.1.07.08,0,.15l.13,0s0,0,0-.06a.25.25,0,0,0,0-.07h.06c0-.11.16-.19.16-.32s0-.15.1-.18,0,0,0-.07,0-.19.14-.23l0,0v-.09c-.12,0-.17,0-.19-.15s-.07-.15-.05-.24-.06,0-.06-.05a1.52,1.52,0,0,1-.09-.28c.15-.1.2-.13.11-.24s.05-.06.16,0a1.23,1.23,0,0,0,0-.2c0-.11,0-.14.09-.15l.09,0,0,.14-.11.1c.08,0,.13,0,.16-.06l0,.1,0,0s0-.06,0-.08a.46.46,0,0,1,.07-.1l-.11,0s0-.09,0-.13a.25.25,0,0,1,.07-.26.23.23,0,0,0,.05-.15s0,0,0,0,.1-.16.14-.24a.1.1,0,0,0,0-.15l-.11,0a.17.17,0,0,1-.12-.25.47.47,0,0,1,.07-.12c.08-.07.06-.15,0-.24s0,0,0-.08l.17,0a.31.31,0,0,1,.16-.23l.2-.13h0a.83.83,0,0,1,.15-.11.18.18,0,0,0,.13-.21s0,0,.1-.07l.1.13-.07,0,0,.06a0,0,0,0,0,0,0l.1.12a.21.21,0,0,1,.08-.21l.18,0a.25.25,0,0,0-.23-.26c.06-.14.16-.18.28-.1l.07-.11v.12s.07-.07.08-.1.07-.09.14-.11l-.06-.11,0-.12h.12c0-.08.06-.15,0-.21s0-.06,0-.08l.1-.12,0,.07.15-.06-.09-.11.12-.08s.08-.06.1-.1a.13.13,0,0,1,.12-.1.77.77,0,0,0,0-.15.19.19,0,0,0,0-.07.43.43,0,0,1,0-.45.12.12,0,0,0,0-.14c-.06-.12,0-.2.06-.28l.09-.17a.29.29,0,0,1,.13-.18s.05-.09.08-.13.15-.19.23-.29l0,0c0-.07,0-.1,0-.16s.12,0,.18,0,0,0,0,0,0-.13,0-.18l0,0c-.14,0-.14,0-.2-.2l.09,0,0,0s.14,0,.16,0,0,.06,0,.08h0a.49.49,0,0,1,0-.12.84.84,0,0,1,.06-.14l-.15-.06c0-.08,0-.19-.09-.25a.74.74,0,0,0,.23-.33.15.15,0,0,1,.16-.09l.36,0,.11,0H453c.05,0,.1-.11.2-.1l0,.06.09,0c0,.1.1.14.22.15l-.09-.13a.15.15,0,0,1,.05-.24l.13-.1a.11.11,0,0,0,0-.09c0-.08.05-.13.09-.2s.1,0,.14,0A.24.24,0,0,0,454,38a.39.39,0,0,1,.11-.06s.05-.1.08-.14a.22.22,0,0,0,.06-.19s0-.05,0-.08,0-.06,0-.08a.1.1,0,0,1,0-.14.24.24,0,0,0,.12-.17c0-.06,0-.1.12-.1l0,.07a.57.57,0,0,0,.14,0,.07.07,0,0,0,.07,0c0-.08.07-.09.15-.09s.14-.1.19-.16a.4.4,0,0,0,.11-.31.91.91,0,0,1,0-.17.07.07,0,0,1,0-.06l.28,0-.11-.13-.05.07a.06.06,0,0,1,0,0c0-.07.06-.09.12-.05s.13,0,.12.11.07,0,.07,0a.85.85,0,0,1,0,.16.29.29,0,0,1,.27-.11c.11,0,.21.08.18.24.12,0,.15.06.23.11l.12-.08c0-.08.06-.08.11-.08l0-.12a.23.23,0,0,0,.17-.08.32.32,0,0,1,.13-.1.2.2,0,0,0-.22,0c-.05,0-.05-.08,0-.1a.13.13,0,0,1,.14-.05.6.6,0,0,1,.11.06c.06.07.14,0,.21,0s.05,0,.09-.07l.07,0a.28.28,0,0,1,.06-.16.57.57,0,0,0,.11-.11.43.43,0,0,1,.15-.09c0-.06-.05-.11,0-.16s0-.07,0-.11-.05-.13-.08-.21.08-.08.16-.07,0,0,.06-.05l.09-.1a.05.05,0,0,0,0,0l.08-.15-.12-.06v0a.33.33,0,0,0,.29,0,.2.2,0,0,1,.23,0,.37.37,0,0,0,.17,0c.06,0,.07,0,.09.07l.11-.11.07,0,.06-.1,0,0V35l.07-.06s0,0,0,0,.08-.17.21-.12l.2-.12.1-.06c.1-.06.2-.13.32-.08s0,0,.05,0,.14,0,.16.1v0l.12-.08a.26.26,0,0,1,0,.24.29.29,0,0,0,.08.25.13.13,0,0,0,.15,0l.1,0a.18.18,0,0,1,.21.09l.05.07a.39.39,0,0,1,0,.09l.11-.09c.05,0,.08,0,.13,0a.19.19,0,0,0,.16.09s.07,0,.11.07l0,0a.91.91,0,0,0,.17.09.17.17,0,0,0,.14,0c.17,0,.24,0,.29.16l-.06,0v0l.19.05a.13.13,0,0,1,.14.09l-.13.13c-.05,0-.09-.1-.17,0l.09,0V36l.13,0a.6.6,0,0,1,.07-.14s.08,0,.12,0,.25.06.36.17c0-.15.14-.14.22-.21a.33.33,0,0,1,0-.1l0-.09c.05,0,.1,0,.12,0a.26.26,0,0,1,.17-.15h0a.08.08,0,0,0,.12,0s0,0,.06,0h0a.21.21,0,0,0-.14-.12l-.06,0h-.07c.05-.09.1-.17.23-.15s0-.14-.05-.19,0-.08,0-.12.2-.1.26,0,.14.13.11.23a.41.41,0,0,1,.4.12c0,.08.11.16,0,.25,0-.14,0-.15-.12-.23l0-.06-.15,0-.06.08a.33.33,0,0,0,0,.1l-.25-.08s0,.14-.09.14h0c0,.07,0,.14.05.2a.11.11,0,0,1,0,.08c-.06.06,0,.11,0,.18h.1l.09.14.05-.11.11.06a.22.22,0,0,0,.07-.09s0-.07.09-.06l.07-.07h-.18c-.06-.11,0-.14.08-.2s.08.07.06.14.1-.14.2-.12l-.07-.09c.09,0,.17,0,.24,0a.69.69,0,0,0,.15.07.1.1,0,0,1,.07.12.19.19,0,0,0,0,.07c.08.06.12.17.24.19a.2.2,0,0,1,.18-.11l.13-.05.16-.07h0l-.1,0,.08,0v-.06l.07,0s0,.08-.06.1h0l0,.1c.07,0,.15,0,.14-.13a.14.14,0,0,0-.15-.16c.05-.18.09-.2.22-.12h-.13l.15.24c.07,0,.07-.11.1-.17s.11,0,.11.1-.09,0-.13.07.13.1.21,0a.32.32,0,0,1,.27-.08s0,0,0,0,.05,0,.09,0-.14.07-.18.14.1,0,.15.05v.06l.08,0h0c0-.07.09,0,.14,0h0l-.19-.17.15,0c0,.07,0,.13,0,.19h0l-.14,0h0c0,.08.11,0,.16.09v.07l.2,0a.09.09,0,0,0,.07,0c.14,0,.23.06.31.16a.08.08,0,0,1,0,0,.08.08,0,0,1,0,.07s-.05,0-.06,0a.21.21,0,0,0-.17-.06.54.54,0,0,0,.09.17.14.14,0,0,0,.15.06.29.29,0,0,1,.27.06s0,0,0,0v0l-.09,0a.19.19,0,0,1,0,.07c0,.06,0,.09,0,.14s0,.16,0,.24,0,.19,0,.29h.08l.17.14a.08.08,0,0,0,.11,0,.83.83,0,0,0,.07-.13s0-.06,0-.07,0-.23,0-.35-.21.09-.32,0l0-.18h0l-.07-.08h.11c0-.06.07,0,.1,0s0,0,0,.06l0,.11h.25a.33.33,0,0,0,.17,0,.17.17,0,0,1,.11,0,.17.17,0,0,0,.15.06c.05,0,.08,0,.1.07s.06.09.13,0h.09v-.08h0a.1.1,0,0,1,.09.11.14.14,0,0,0,.08.13c.05,0,.11.09.08.18s0,.06.05.09a.41.41,0,0,1,0,.11h-.1a.35.35,0,0,0,0,.06c.13,0,.14.11.19.2s.1,0,.14.08.14,0,.18,0l.08.08a.43.43,0,0,1,.14.23c0,.1.08.14.15.18a.15.15,0,0,1,.06.23l-.09.12c.1,0,.14,0,.22-.13l.08,0,0-.07.07,0a.53.53,0,0,0,.28.1,1.29,1.29,0,0,0,.34,0c.31,0,.24,0,.37.21a2.31,2.31,0,0,0,.14.19c-.1.06,0,.17-.08.25l-.13,0,.07.28s0-.09.08-.11h.14l-.12-.09.09-.08.07.08,0,.09h0l0,.06.08,0c0,.1,0,.2-.18.22.07.08.09.15,0,.22.08,0,.13.09.22,0s.08.08,0,.14l0,0,.24.31c0,.06.07.13.14.15l0,0c.06.13.12.25.19.37a.15.15,0,0,1,0,.13c0,.07,0,.14,0,.22a.41.41,0,0,1,0,.4s-.05,0,0,.1,0,.08,0,.13a.13.13,0,0,1,.14.11s.06.06.09.09l.12.07-.09.1.15.08.05-.08.11.17h0c-.08.06,0,.14-.05.21s0,0,0,0l.16,0c.07.08,0,.16,0,.25.13,0,.11.14.21.18v-.1l.08.1s.07,0,.1,0,.15,0,.18.12a.37.37,0,0,1-.12.07c-.06,0-.08.05-.1.11a.34.34,0,0,1-.07.11l.17,0a.09.09,0,0,1,.11.05s.06.09,0,.12.08,0,.11,0,.05-.08,0-.12-.05-.07-.08-.1l.08-.12c.1,0,.09,0,.11.08a.19.19,0,0,0,.1.17l.15.09c-.07.09-.07.09,0,.17l-.07.17c.07,0,.17,0,.17.1l.08,0-.14-.07a.22.22,0,0,0,0-.22c0-.06.07-.06.11,0l.12.09a.26.26,0,0,1,.16.23h.17s0,.07,0,.09-.06.16,0,.24a.29.29,0,0,1,.08.13.17.17,0,0,1-.12.24l-.1,0c-.08,0-.09.09-.06.17a.75.75,0,0,0,.15.24s0,.09,0,.12,0,.05,0,.06a.24.24,0,0,1,.07.25.66.66,0,0,0,0,.14l-.13,0s.07.06.08.1,0,.07.05.11l0-.1h0l0,.08h.07c0-.08-.06-.09-.09-.12v-.13h.16l.05.12h-.08l0,.24s.1-.1.15,0l-.07.09.17.16a.13.13,0,0,1,0,0c0,.08,0,.19-.13.26s0,.12,0,.18,0,.2-.18.21,0,.05-.06.1a.2.2,0,0,1,.17.11l0,0s0,.11,0,.15.1,0,.11.11a.68.68,0,0,0,0,.14,2.15,2.15,0,0,0,.14.26s0,0,0,0,.05,0,0,0,0,0-.05,0,.06,0,.14,0,0,0,0-.06,0-.07.05-.07a.14.14,0,0,1,.12,0c0,.08.1.11.13.18a.2.2,0,0,1,0,.15h0a1,1,0,0,0,0,.17s.05,0,.07,0v0l0-.14.19.08Zm-.69,2.53c-.08,0-.05-.09-.07-.15S474.75,51.32,474.73,51.39Zm-26.28.14c0,.07,0,.07,0,.12S448.38,51.58,448.45,51.53Zm15.36-16.22v0h.09v0l-.06,0h0l.13,0c-.06,0-.09,0-.11,0s-.07,0,0-.06Zm-.25.26v.1C463.49,35.61,463.49,35.61,463.56,35.57Zm0,.13-.06,0h0l0,0Zm0-.19c-.09-.06-.06-.14,0-.23s.07.09.09.15h.08l0,.13ZM467.47,37s0,0,.08,0,0,.08,0,.1a.54.54,0,0,1-.12.09l0,0,.08-.08S467.46,37,467.47,37Zm.08.35,0,0,0,0,0,0Z"/></g></g></svg>